<svg width="183" height="118" viewBox="0 0 183 118" xmlns="http://www.w3.org/2000/svg"><title>responsive-e4f91891f3d86960300eadb9c2ced67ecee942d03b6576a606309dfd38d837ad copy</title><g fill="none" fill-rule="evenodd"><path fill="#000" d="M121.2 116H92.6l2.8-30h22.9"/><path d="M121.2 117.5H92.5c-.4 0-.8-.2-1.1-.5-.3-.3-.4-.7-.4-1.2l2.9-30c.1-.8.7-1.4 1.5-1.4h22.9c.8 0 1.4.6 1.5 1.4l2.9 29.8v.4c0 .9-.6 1.5-1.5 1.5zm-27-3h25.4l-2.6-27H96.8l-2.6 27z" fill="#FFF"/><path d="M134.6 117.8H79.3c-.8 0-1.5-.7-1.5-1.5s.7-1.5 1.5-1.5h55.3c.8 0 1.5.7 1.5 1.5s-.7 1.5-1.5 1.5z" fill="#FFF"/><path fill="#000" d="M38.1 1.8h135.2V93H38.1z"/><path d="M173.2 94.5H38.1c-.8 0-1.5-.7-1.5-1.5V1.8c0-.8.7-1.5 1.5-1.5h135.2c.8 0 1.5.7 1.5 1.5V93c-.1.8-.7 1.5-1.6 1.5zm-133.6-3h132.2V3.3H39.6v88.2z" fill="#FFF"/><path fill="#000" d="M165.3 85.1H45.7l.1-75.5h119.7"/><path d="M165.3 86.6H45.7c-.4 0-.8-.2-1.1-.4-.3-.3-.4-.7-.4-1.1l.1-75.5c0-.8.7-1.5 1.5-1.5h119.6c.4 0 .8.2 1.1.4.3.3.4.7.4 1.1l-.1 75.5c0 .8-.7 1.5-1.5 1.5zm-118.1-3h116.6l.1-72.5H47.3l-.1 72.5z" fill="#FFF"/><path fill="#000" d="M1.5 32.6h58.6v83.7H1.5z"/><path d="M60.1 117.9H1.5c-.8 0-1.5-.7-1.5-1.5V32.6c0-.8.7-1.5 1.5-1.5h58.6c.8 0 1.5.7 1.5 1.5v83.7c0 .9-.7 1.6-1.5 1.6zm-57.1-3h55.6V34.1H3v80.8z" fill="#FFF"/><path fill="#000" d="M6.9 44.4h47.8v61.1H6.9z"/><path d="M54.7 107H6.9c-.8 0-1.5-.7-1.5-1.5V44.4c0-.8.7-1.5 1.5-1.5h47.8c.8 0 1.5.7 1.5 1.5v61.1c0 .8-.7 1.5-1.5 1.5zm-46.3-3h44.8V45.9H8.4V104z" fill="#FFF"/><g fill="#FFF"><path d="M29.1 111h3.4M32.5 112.5h-3.3c-.8 0-1.5-.7-1.5-1.5s.7-1.5 1.5-1.5h3.3c.8 0 1.5.7 1.5 1.5s-.7 1.5-1.5 1.5z"/></g><path d="M111.5 46.6H100l-2.1 6.1h-7l11.2-29.9h7.7l11.1 29.9h-7.2l-2.2-6.1zm-9.3-6h7.2l-3.6-10.3-3.6 10.3z" fill="#1E73F2"/><path d="M120.9 54.2h-7.3c-.6 0-1.2-.4-1.4-1l-1.8-5.1H101l-1.8 5.1c-.2.6-.8 1-1.4 1h-7c-.5 0-1-.2-1.2-.6-.2-.4-.3-.9-.2-1.4l11.2-29.9c.2-.6.8-1 1.4-1h7.7c.6 0 1.2.4 1.4 1l11 29.6c.1.2.2.5.2.7.1.9-.5 1.6-1.4 1.6zm-6.2-3h4l-10-26.9h-5.6L93 51.2h3.8l1.8-5.1c.2-.6.8-1 1.4-1h11.5c.6 0 1.2.4 1.4 1l1.8 5.1zm-5.3-9.1h-7.2c-.5 0-.9-.2-1.2-.6-.3-.4-.4-.9-.2-1.4l3.7-10.3c.2-.6.8-1 1.4-1 .6 0 1.2.4 1.4 1l3.6 10.3c.2.5.1 1-.2 1.4-.3.3-.8.6-1.3.6zm-5.1-3h3l-1.5-4.3-1.5 4.3zM45.9 83.5s-.1 0 0 0h-7.3c-.6 0-1.2-.4-1.4-1l-1.8-5.1H26l-1.8 5.1c-.2.6-.8 1-1.4 1h-7c-.5 0-1-.2-1.2-.6-.2-.4-.3-.9-.2-1.4l11.2-29.9c.2-.6.8-1 1.4-1h7.7c.6 0 1.2.4 1.4 1l11 29.6c.1.2.2.5.2.7.1.9-.6 1.6-1.4 1.6zm-6.2-3h4l-10-26.9h-5.6L18 80.5h3.8l1.8-5.1c.2-.6.8-1 1.4-1h11.5c.6 0 1.2.4 1.4 1l1.8 5.1zm-5.4-9.1h-7.2c-.5 0-.9-.2-1.2-.6-.3-.4-.4-.9-.2-1.4L29.3 59c.2-.6.8-1 1.4-1 .6 0 1.2.4 1.4 1l3.6 10.3c.2.5.1 1-.2 1.4-.2.4-.7.7-1.2.7zm-5.1-3h3l-1.5-4.3-1.5 4.3z" fill="#FFF"/><path fill="#000189" d="M67.9 60.2h75.5v11.7H67.9z"/><path d="M143.4 73.4H67.9c-.8 0-1.5-.7-1.5-1.5V60.2c0-.8.7-1.5 1.5-1.5h75.5c.8 0 1.5.7 1.5 1.5v11.7c0 .8-.7 1.5-1.5 1.5zm-74-3h72.5v-8.7H69.4v8.7zM46.8 91.3H14.7c-.8 0-1.5-.7-1.5-1.5s.7-1.5 1.5-1.5h32.2c.8 0 1.5.7 1.5 1.5s-.7 1.5-1.6 1.5zM46.8 99.2H14.7c-.8 0-1.5-.7-1.5-1.5s.7-1.5 1.5-1.5h32.2c.8 0 1.5.7 1.5 1.5s-.7 1.5-1.6 1.5z" fill="#FFF"/><g><path fill="#000" d="M151.3 63.7h29.5v52.4h-29.5z"/><path d="M180.8 117.5h-29.5c-.8 0-1.5-.7-1.5-1.5V63.7c0-.4.2-.8.4-1.1.2-.3.7-.4 1.1-.4h29.5c.8 0 1.5.7 1.5 1.5V116c0 .9-.7 1.5-1.5 1.5zm-28-3h26.5V65.2h-26.5v49.3z" fill="#FFF"/></g><g><path fill="#000" d="M156.7 69.1h18.6v36.2h-18.6z"/><path d="M175.3 106.8h-18.6c-.8 0-1.5-.7-1.5-1.5V69.1c0-.8.7-1.5 1.5-1.5h18.6c.8 0 1.5.7 1.5 1.5v36.2c0 .8-.6 1.5-1.5 1.5zm-17.1-3h15.6V70.6h-15.6v33.2z" fill="#FFF"/></g><g fill="#FFF"><path d="M164.3 110.7h3.4M167.7 112.2h-3.3c-.8 0-1.5-.7-1.5-1.5s.7-1.5 1.5-1.5h3.3c.8 0 1.5.7 1.5 1.5s-.7 1.5-1.5 1.5z"/></g><path d="M168 85.8h-4.1l-.8 2.1h-2.5l4-10.6h2.7l3.9 10.6h-2.6l-.6-2.1zm-3.3-2.2h2.6L166 80l-1.3 3.6zM169.9 93.3h-7.8c-.8 0-1.5-.7-1.5-1.5s.7-1.5 1.5-1.5h7.8c.8 0 1.5.7 1.5 1.5s-.6 1.5-1.5 1.5zM169.9 98.7h-7.8c-.8 0-1.5-.7-1.5-1.5s.7-1.5 1.5-1.5h7.8c.8 0 1.5.7 1.5 1.5s-.6 1.5-1.5 1.5z" fill="#FFF"/></g></svg>