<svg width="232" height="119" viewBox="0 0 232 119" xmlns="http://www.w3.org/2000/svg"><title>html-css-66a3ce1f52a1a89606f11fc3201d983408e3dc308fcec82c551f61446eca3967 copy</title><g fill="none" fill-rule="evenodd"><path d="M188.3 29.1h-13.1l-2.4 6.9h-7.9l12.8-33.9h8.8L198.9 36h-8.2l-2.4-6.9zm-10.6-6.9h8.2l-4.1-11.7-4.1 11.7z" fill="#0745EB"/><path d="M199 37.5h-8.2c-.6 0-1.2-.4-1.4-1l-2.1-5.9h-11l-2.1 5.9c-.2.6-.8 1-1.4 1h-7.9c-.5 0-1-.2-1.2-.6-.2-.4-.3-.9-.2-1.4l12.8-33.9c.2-.6.8-1 1.4-1h8.8c.6 0 1.2.4 1.4 1l12.5 33.7c.1.2.2.5.2.7-.1.8-.8 1.5-1.6 1.5zm-7.2-3h5L185.3 3.6h-6.7L167 34.5h4.7l2.1-5.9c.2-.6.8-1 1.4-1h13.1c.6 0 1.2.4 1.4 1l2.1 5.9zm-5.9-10.8h-8.2c-.5 0-.9-.2-1.2-.6-.3-.4-.4-.9-.2-1.4l4.2-11.7c.2-.6.8-1 1.4-1 .6 0 1.2.4 1.4 1l4.1 11.7c.2.5.1 1-.2 1.4-.4.4-.8.6-1.3.6zm-6.1-3h4l-2-5.7-2 5.7zM119.9 118.1c-.8 0-1.5-.7-1.5-1.5V2.1c0-.8.7-1.5 1.5-1.5s1.5.7 1.5 1.5v114.6c0 .8-.6 1.4-1.5 1.4z" fill="#FFF"/><path fill="#000189" d="M133.4 62.5h96.4v27.7h-96.4z"/><path d="M229.8 91.7h-96.4c-.8 0-1.5-.7-1.5-1.5V62.5c0-.8.7-1.5 1.5-1.5h96.4c.8 0 1.5.7 1.5 1.5v27.7c0 .8-.7 1.5-1.5 1.5zm-94.9-3h93.4V64h-93.4v24.7zM177.7 104.8h-44.4c-.8 0-1.5-.7-1.5-1.5s.7-1.5 1.5-1.5h44.4c.8 0 1.5.7 1.5 1.5s-.6 1.5-1.5 1.5zM177.7 118.1h-44.4c-.8 0-1.5-.7-1.5-1.5s.7-1.5 1.5-1.5h44.4c.8 0 1.5.7 1.5 1.5s-.6 1.5-1.5 1.5zM230 104.8h-44.4c-.8 0-1.5-.7-1.5-1.5s.7-1.5 1.5-1.5H230c.8 0 1.5.7 1.5 1.5s-.7 1.5-1.5 1.5zM230 118.1h-44.4c-.8 0-1.5-.7-1.5-1.5s.7-1.5 1.5-1.5H230c.8 0 1.5.7 1.5 1.5s-.7 1.5-1.5 1.5zM229.8 50.8h-96.4c-.8 0-1.5-.7-1.5-1.5s.7-1.5 1.5-1.5h96.4c.8 0 1.5.7 1.5 1.5s-.7 1.5-1.5 1.5zM15.3 53.4c-.3 0-.6-.1-.8-.2L1.3 44.4c-.4-.3-.7-.7-.7-1.3 0-.5.3-1 .7-1.3L14.5 33c.7-.5 1.6-.3 2.1.4s.3 1.6-.4 2.1L4.9 43l11.4 7.5c.7.5.9 1.4.4 2.1-.5.6-.9.8-1.4.8zM43.2 87.4c-.3 0-.6-.1-.8-.2l-13.2-8.8c-.4-.3-.7-.7-.7-1.3 0-.5.3-1 .7-1.3L42.4 67c.7-.5 1.6-.3 2.1.4s.3 1.6-.4 2.1L32.8 77l11.4 7.5c.7.5.9 1.4.4 2.1-.5.6-1 .8-1.4.8zM79.6 87.4c-.5 0-1-.2-1.3-.7-.5-.7-.3-1.6.4-2.1l11.4-7.5-11.3-7.5c-.7-.5-.9-1.4-.4-2.1.5-.7 1.4-.9 2.1-.4l13.2 8.8c.4.3.7.7.7 1.3 0 .5-.3 1-.7 1.3l-13.2 8.8c-.4 0-.7.1-.9.1zM93.4 53.4c-.5 0-1-.2-1.3-.7-.5-.7-.3-1.6.4-2.1l11.4-7.5-11.3-7.5c-.7-.5-.9-1.4-.4-2.1.5-.7 1.4-.9 2.1-.4l13.2 8.8c.4.3.7.7.7 1.3 0 .5-.3 1-.7 1.3l-13.2 8.8c-.3.1-.6.1-.9.1z" fill="#FFF"/><g fill="#FFF"><path d="M24.9 54.3h-3.3V29h3.3v10.5c1.2-1.8 3.2-2.5 5.1-2.5 4 0 6 2.9 6 6.7v10.7h-3.3V44.2c0-2.3-1-4.2-3.9-4.2-2.5 0-3.9 2-3.9 4.4v9.9zM45.7 37.5h3.6v3h-3.6v8.8c0 1.5.6 2.3 2.3 2.3.4 0 1-.1 1.3-.1v2.8c-.3.1-1.1.3-2.2.3-2.9 0-4.7-1.8-4.7-4.8v-9.2h-3.2v-3h.9c1.8 0 2.6-1.1 2.6-2.6v-2.7h3v5.2zM53.4 54.3V37.5h3.1v2.2c1.1-1.9 3.2-2.7 5.1-2.7 2.1 0 4.1 1 5 3.2 1.3-2.4 3.5-3.2 5.6-3.2 2.9 0 5.8 2 5.8 6.4v10.9h-3.3V43.7c0-2.2-1.1-3.9-3.6-3.9-2.3 0-3.9 1.8-3.9 4.2v10.2h-3.3V43.7c0-2.2-1.1-3.9-3.6-3.9-2.3 0-3.9 1.8-3.9 4.3v10.2h-3zM83.3 54.3V29h3.3v25.3"/></g><path fill="#1E73F2" d="M57.8 88.3V86h15.5v2.4H57.8"/><path d="M51.1 87.5c-.2 0-.4 0-.6-.1-.8-.3-1.1-1.2-.8-2l7.6-17c.3-.8 1.2-1.1 2-.8.8.3 1.1 1.2.8 2l-7.6 17c-.3.5-.8.9-1.4.9z" fill="#FFF"/></g></svg>