<svg width="174" height="116" viewBox="0 0 174 116" xmlns="http://www.w3.org/2000/svg"><title>javascript copy</title><g fill="none" fill-rule="evenodd"><path d="M159.3 115.8H2.5c-1 0-1.8-.8-1.8-1.8V1.9C.7.9 1.5.1 2.5.1h141.4c1 0 1.8.8 1.8 1.8s-.8 1.8-1.8 1.8H4.3v108.7h153.3V17.5c0-1 .8-1.8 1.8-1.8s1.8.8 1.8 1.8v96.6c-.1.9-.9 1.7-1.9 1.7z" fill="#FFF"/><path d="M81 115.8c-1 0-1.8-.8-1.8-1.8V1.9c0-1 .8-1.8 1.8-1.8s1.8.8 1.8 1.8v112.2c0 .9-.8 1.7-1.8 1.7z" fill="#FFF"/><path fill="#1E73F2" d="M81 1.9h78.3v15.2H81z"/><path d="M159.3 18.8H81c-1 0-1.8-.8-1.8-1.8V1.8C79.2.8 80 0 81 0h78.3c1 0 1.8.8 1.8 1.8V17c0 1-.8 1.8-1.8 1.8zm-76.6-3.5h74.8V3.6H82.7v11.7z" fill="#FFF"/><path fill="#000189" d="M2.5 1.9h78.3v15.2H2.5z"/><path d="M82.6 18.8H.8V.1h81.8v18.7zM4.3 15.3h74.8V3.6H4.3v11.7z" fill="#FFF"/><circle fill="#FFF" cx="90.9" cy="9.5" r="1.9"/><circle fill="#FFF" cx="100" cy="9.5" r="1.9"/><circle fill="#FFF" cx="109.2" cy="9.5" r="1.9"/><path d="M14.8 115.6c-1 0-1.8-.8-1.8-1.8V17.2c0-1 .8-1.8 1.8-1.8s1.8.8 1.8 1.8v96.6c0 1-.8 1.8-1.8 1.8zM37 31.9H24.3c-1 0-1.8-.8-1.8-1.8s.8-1.8 1.8-1.8H37c1 0 1.8.8 1.8 1.8s-.9 1.8-1.8 1.8zM43.3 40.5h-19c-1 0-1.8-.8-1.8-1.8s.8-1.8 1.8-1.8h19c1 0 1.8.8 1.8 1.8s-.8 1.8-1.8 1.8z" fill="#FFF"/><path d="M59.2 40.5H48.7c-1 0-1.8-.8-1.8-1.8s.8-1.8 1.8-1.8h10.5c1 0 1.8.8 1.8 1.8s-.8 1.8-1.8 1.8zM47.3 48.9H36c-1 0-1.8-.8-1.8-1.8s.8-1.8 1.8-1.8h11.3c1 0 1.8.8 1.8 1.8s-.8 1.8-1.8 1.8z" fill="#000189"/><path d="M70.8 48.9H52.4c-1 0-1.8-.8-1.8-1.8s.8-1.8 1.8-1.8h18.4c1 0 1.8.8 1.8 1.8s-.8 1.8-1.8 1.8zM70.8 40.5h-6.3c-1 0-1.8-.8-1.8-1.8s.8-1.8 1.8-1.8h6.3c1 0 1.8.8 1.8 1.8s-.8 1.8-1.8 1.8zM30.6 48.9h-6.3c-1 0-1.8-.8-1.8-1.8s.8-1.8 1.8-1.8h6.3c1 0 1.8.8 1.8 1.8s-.8 1.8-1.8 1.8zM24.3 62.4c-1 0-1.8-.8-1.8-1.8s.8-1.8 1.8-1.8H37c1 0 1.8.8 1.8 1.8s-.8 1.8-1.8 1.8H24.3z" fill="#FFF"/><path d="M43.3 71h-19c-1 0-1.8-.8-1.8-1.8s.8-1.8 1.8-1.8h19c1 0 1.8.8 1.8 1.8s-.8 1.8-1.8 1.8z" fill="#000189"/><path d="M59.2 71H48.7c-1 0-1.8-.8-1.8-1.8s.8-1.8 1.8-1.8h10.5c1 0 1.8.8 1.8 1.8s-.8 1.8-1.8 1.8zM47.3 79.4H36c-1 0-1.8-.8-1.8-1.8s.8-1.8 1.8-1.8h11.3c1 0 1.8.8 1.8 1.8s-.8 1.8-1.8 1.8z" fill="#FFF"/><path d="M70.8 79.4H52.4c-1 0-1.8-.8-1.8-1.8s.8-1.8 1.8-1.8h18.4c1 0 1.8.8 1.8 1.8s-.8 1.8-1.8 1.8z" fill="#000189"/><path d="M70.8 71h-6.3c-1 0-1.8-.8-1.8-1.8s.8-1.8 1.8-1.8h6.3c1 0 1.8.8 1.8 1.8s-.8 1.8-1.8 1.8zM30.6 79.4h-6.3c-1 0-1.8-.8-1.8-1.8s.8-1.8 1.8-1.8h6.3c1 0 1.8.8 1.8 1.8s-.8 1.8-1.8 1.8zM149.1 49.5H90.9c-1 0-1.8-.8-1.8-1.8V28.8c0-1 .8-1.8 1.8-1.8h58.2c1 0 1.8.8 1.8 1.8v18.9c0 1-.8 1.8-1.8 1.8zM92.6 46h54.7V30.6H92.6V46zM149.1 104.2H90.9c-1 0-1.8-.8-1.8-1.8V83.5c0-1 .8-1.8 1.8-1.8h58.2c1 0 1.8.8 1.8 1.8v18.9c0 1-.8 1.8-1.8 1.8zm-56.5-3.5h54.7V85.3H92.6v15.4z" fill="#FFF"/><path fill="#000189" d="M114.2 56.1h45.1V75h-45.1z"/><path d="M159.2 76.7h-45.1c-1 0-1.8-.8-1.8-1.8V56c0-1 .8-1.8 1.8-1.8h45.1c1 0 1.8.8 1.8 1.8v19c0 1-.8 1.7-1.8 1.7zm-43.3-3.5h41.6V57.8h-41.6v15.4z" fill="#FFF"/><g fill="#FFF"><path d="M172.2 76.6h-4c-1 0-1.8-.8-1.8-1.8s.8-1.8 1.8-1.8h2.2v-2.2c0-1 .8-1.8 1.8-1.8s1.8.8 1.8 1.8v4c0 1-.8 1.8-1.8 1.8zM163.3 76.6h-4c-1 0-1.8-.8-1.8-1.8v-4c0-1 .8-1.8 1.8-1.8s1.8.8 1.8 1.8V73h2.2c1 0 1.8.8 1.8 1.8s-.8 1.8-1.8 1.8zM159.3 61.6c-1 0-1.8-.8-1.8-1.8v-4c0-1 .8-1.8 1.8-1.8h4c1 0 1.8.8 1.8 1.8s-.8 1.8-1.8 1.8h-2.2v2.3c0 1-.8 1.7-1.8 1.7zM172.2 61.6c-1 0-1.8-.8-1.8-1.8v-2.3h-2.2c-1 0-1.8-.8-1.8-1.8s.8-1.8 1.8-1.8h4c1 0 1.8.8 1.8 1.8v4c0 1.2-.8 1.9-1.8 1.9z"/></g><g><path fill="#000" d="M142.8 76.7l-1.3-13.3 11.8 6.1-3.3 2.3 3.8 5.5-3.7 2.4-3.7-5.4"/><path d="M150.1 81.5c-.6 0-1.1-.3-1.4-.8l-2.8-4-2.2 1.4c-.5.3-1.2.4-1.7.1-.6-.3-.9-.8-1-1.4l-1.2-13.3c-.1-.6.2-1.3.8-1.6.5-.4 1.2-.4 1.8-.1l11.8 6.2c.5.3.9.8.9 1.4 0 .6-.2 1.2-.8 1.5l-1.9 1.3 2.8 4c.3.4.4.9.3 1.3-.1.5-.4.9-.7 1.1l-3.7 2.5c-.3.3-.6.4-1 .4zm-3.7-9c.6 0 1.1.3 1.4.8l2.8 4 .8-.5-2.8-4c-.3-.4-.4-.9-.3-1.3.1-.5.3-.9.7-1.1l.9-.6-6.4-3.3.7 7.2 1.2-.8c.3-.3.6-.4 1-.4z" fill="#FFF"/></g><path d="M123.3 71.3c-.5 0-.9-.2-1.2-.5l-2.8-2.8c-.7-.7-.7-1.8 0-2.5s1.8-.7 2.5 0l1.3 1.3 4-5.8c.5-.8 1.6-1 2.4-.5.8.5 1 1.6.5 2.4l-5.2 7.6c-.3.4-.8.7-1.3.8h-.2z" fill="#FFF"/></g></svg>